HIERARCHY
ROOT Hips
{
	OFFSET 0.000000 0.000000 0.000000
	CHANNELS 6 Xposition Yposition Zposition Zrotation Yrotation Xrotation
	JOINT LHipJoint
	{
		OFFSET 0.000000 0.000000 0.000000
		CHANNELS 6 Xposition Yposition Zposition Zrotation Yrotation Xrotation
		JOINT LeftHip
		{
			OFFSET 1.623290 -1.808000 0.673180
			CHANNELS 3 Zrotation Yrotation Xrotation
			JOINT LeftKnee
			{
				OFFSET 2.571390 -7.064840 0.000001
				CHANNELS 6 Xposition Yposition Zposition Zrotation Yrotation Xrotation
				JOINT LeftAnkle
				{
					OFFSET 2.520170 -6.924130 0.000001
					CHANNELS 6 Xposition Yposition Zposition Zrotation Yrotation Xrotation
					JOINT LeftToe
					{
						OFFSET 0.232950 -0.640011 2.102140
						CHANNELS 6 Xposition Yposition Zposition Zrotation Yrotation Xrotation
						End Site
						{
							OFFSET 0.000000 0.000000 1.101390
						}
					}
				}
			}
		}
	}
	JOINT RHipJoint
	{
		OFFSET 0.000000 0.000000 0.000000
		CHANNELS 6 Xposition Yposition Zposition Zrotation Yrotation Xrotation
		JOINT RightHip
		{
			OFFSET -1.480610 -1.808000 0.673180
			CHANNELS 3 Zrotation Yrotation Xrotation
			JOINT RightKnee
			{
				OFFSET -2.632580 -7.232960 0.000001
				CHANNELS 6 Xposition Yposition Zposition Zrotation Yrotation Xrotation
				JOINT RightAnkle
				{
					OFFSET -2.547790 -7.000000 0.000001
					CHANNELS 6 Xposition Yposition Zposition Zrotation Yrotation Xrotation
					JOINT RightToe
					{
						OFFSET -0.230670 -0.633760 2.121610
						CHANNELS 6 Xposition Yposition Zposition Zrotation Yrotation Xrotation
						End Site
						{
							OFFSET 0.000000 0.000000 1.110000
						}
					}
				}
			}
		}
	}
	JOINT lowerback
	{
		OFFSET 0.000000 0.000000 0.000000
		CHANNELS 6 Xposition Yposition Zposition Zrotation Yrotation Xrotation
		JOINT Chest
		{
			OFFSET -0.021080 2.075730 -0.169810
			CHANNELS 3 Zrotation Yrotation Xrotation
			JOINT Chest2
			{
				OFFSET 0.050700 2.084390 -0.031410
				CHANNELS 6 Xposition Yposition Zposition Zrotation Yrotation Xrotation
				JOINT lowerneck
				{
					OFFSET 0.000000 0.000000 0.000000
					CHANNELS 6 Xposition Yposition Zposition Zrotation Yrotation Xrotation
					JOINT Neck
					{
						OFFSET -0.107310 1.604080 0.313700
						CHANNELS 3 Zrotation Yrotation Xrotation
						JOINT Head
						{
							OFFSET 0.084110 1.656790 -0.308220
							CHANNELS 6 Xposition Yposition Zposition Zrotation Yrotation Xrotation
							End Site
							{
								OFFSET 0.039110 1.691490 -0.141460
							}
						}
					}
				}
				JOINT LeftCollar
				{
					OFFSET 0.000000 0.000000 0.000000
					CHANNELS 6 Xposition Yposition Zposition Zrotation Yrotation Xrotation
					JOINT LeftShoulder
					{
						OFFSET 3.523150 0.732190 -0.546940
						CHANNELS 3 Zrotation Xrotation Yrotation
						JOINT LeftElbow
						{
							OFFSET 0.000000 -5.324620 0.000001
							CHANNELS 6 Xposition Yposition Zposition Zrotation Xrotation Yrotation
							JOINT LeftWrist
							{
								OFFSET 0.000000 -3.484020 0.000000
								CHANNELS 6 Xposition Yposition Zposition Zrotation Xrotation Yrotation
								JOINT lhand
								{
									OFFSET 0.000000 0.000000 0.000000
									CHANNELS 6 Xposition Yposition Zposition Zrotation Xrotation Yrotation
									JOINT LFingers
									{
										OFFSET 0.000000 -0.572480 0.000000
										CHANNELS 3 Zrotation Xrotation Yrotation
										End Site
										{
											OFFSET 0.000000 -0.461540 0.000000
										}
									}
								}
								JOINT LThumb
								{
									OFFSET 0.000000 0.000000 0.000000
									CHANNELS 6 Xposition Yposition Zposition Zrotation Xrotation Yrotation
									End Site
									{
										OFFSET 0.000000 -0.468590 0.468590
									}
								}
							}
						}
					}
				}
				JOINT RightCollar
				{
					OFFSET 0.000000 0.000000 0.000000
					CHANNELS 6 Xposition Yposition Zposition Zrotation Yrotation Xrotation
					JOINT RightShoulder
					{
						OFFSET -3.417660 0.935920 -0.100190
						CHANNELS 3 Zrotation Xrotation Yrotation
						JOINT RightElbow
						{
							OFFSET 0.000000 -5.335890 0.000001
							CHANNELS 6 Xposition Yposition Zposition Zrotation Xrotation Yrotation
							JOINT RightWrist
							{
								OFFSET 0.000000 -3.641340 0.000000
								CHANNELS 6 Xposition Yposition Zposition Zrotation Xrotation Yrotation
								JOINT rhand
								{
									OFFSET 0.000000 0.000000 0.000000
									CHANNELS 6 Xposition Yposition Zposition Zrotation Xrotation Yrotation
									JOINT RFingers
									{
										OFFSET 0.000000 -0.734810 0.000000
										CHANNELS 3 Zrotation Xrotation Yrotation
										End Site
										{
											OFFSET 0.000000 -0.592420 0.000000
										}
									}
								}
								JOINT RThumb
								{
									OFFSET 0.000000 0.000000 0.000000
									CHANNELS 6 Xposition Yposition Zposition Zrotation Xrotation Yrotation
									End Site
									{
										OFFSET 0.000000 -0.601470 0.601470
									}
								}
							}
						}
					}
				}
			}
		}
	}
}
MOTION
Frames: 4
Frame Time: 0.041667
-1.832900 19.465700 -0.318502 2.106400 2.201900 3.586300 0.000000 -0.000000 -0.000000 -0.000001 -0.000001 -0.000001 -14.732400 -2.497402 -11.029898 2.571389 -7.064839 0.000001 2.110797 9.093203 26.087301 2.520171 -6.924129 0.000001 -0.007198 -2.223896 2.549498 0.232951 -0.640014 2.102141 2.296205 -9.457503 -27.237305 0.000000 -0.000000 -0.000000 -0.000001 -0.000000 0.000002 11.922996 3.925501 -15.522296 -2.632580 -7.232960 0.000002 -4.081193 -12.267599 36.685393 -2.547791 -6.999999 0.000001 0.053298 -4.165298 -2.356098 -0.230670 -0.633762 2.121611 -0.114502 -2.181298 6.006905 0.000000 -0.000000 -0.000000 -2.943200 -0.883101 5.635700 1.391701 -1.333300 -1.255200 0.050700 2.084391 -0.031410 3.220600 -0.566200 -4.363600 -0.000000 -0.000003 -0.000000 -9.538499 -2.506003 -27.806602 5.012400 -0.913699 20.955703 0.084110 1.656790 -0.308220 3.273500 -0.525600 11.479804 -0.000000 -0.000002 -0.000000 0.000001 0.000000 -0.000002 50.005792 0.952496 27.784914 -0.000002 -5.324622 -0.000000 24.127710 -35.299008 7.780222 -0.000000 -3.484021 -0.000001 25.610003 -23.471494 -33.613601 0.000001 -0.000002 -0.000000 -0.000001 0.000002 -0.000002 -7.125002 -0.000001 -0.000002 0.000001 -0.000002 0.000000 -9.261725 66.155402 4.744826 -0.000000 -0.000003 -0.000000 -0.000001 -0.000000 -0.000000 -54.059701 -3.074090 -32.364800 -0.000003 -5.335889 0.000000 -26.074182 -37.281908 -8.932585 -0.000000 -3.641341 -0.000001 -24.162993 -3.088306 13.302606 -0.000000 0.000002 0.000001 0.000001 -0.000001 0.000002 7.124995 -0.000000 0.000001 -0.000001 0.000002 0.000001 2.957909 44.487795 0.037395 
-1.829300 19.565399 -0.325602 2.884000 2.242400 2.742901 -0.000000 -0.000001 0.000000 -0.000004 0.000001 -0.000003 -13.728404 -3.934006 -7.847199 2.571390 -7.064839 0.000001 1.775297 8.381404 23.878597 2.520169 -6.924131 0.000001 0.001498 1.411403 1.159003 0.232950 -0.640014 2.102140 2.131202 -9.134305 -26.216201 -0.000000 -0.000001 0.000000 -0.000003 -0.000000 -0.000001 9.223000 4.896903 -13.363498 -2.632580 -7.232960 0.000002 -3.938696 -12.078397 36.009987 -2.547790 -7.000001 0.000000 0.071098 -4.762994 -1.100593 -0.230671 -0.633760 2.121610 -0.066701 -1.666399 4.584601 -0.000000 -0.000001 0.000000 -3.691400 -0.895500 6.177700 1.286700 -1.429800 -1.379100 0.050700 2.084387 -0.031410 3.558700 -0.583700 -4.779201 -0.000000 -0.000001 0.000000 -10.075200 -2.614303 -27.200702 5.084001 -0.936900 21.432608 0.084110 1.656788 -0.308219 3.391800 -0.588200 11.560006 -0.000000 -0.000000 -0.000000 0.000001 -0.000000 -0.000001 61.696600 0.960900 27.548415 -0.000000 -5.324617 0.000002 23.565515 -34.701411 7.457712 0.000000 -3.484021 0.000001 26.128207 -17.140392 -32.715001 -0.000000 -0.000001 0.000001 0.000003 -0.000002 0.000002 -7.124997 -0.000002 0.000000 -0.000000 -0.000000 0.000001 -7.918421 65.398904 3.914339 -0.000000 -0.000000 0.000000 0.000000 0.000000 0.000000 -64.988499 -4.208794 -34.751302 0.000000 -5.335890 0.000001 -27.434881 -38.590808 -9.769184 -0.000001 -3.641341 0.000000 -25.406495 -1.761204 13.013700 0.000003 0.000001 0.000001 0.000004 -0.000000 -0.000000 7.124999 -0.000000 0.000003 0.000002 0.000001 0.000002 1.771315 44.324608 0.029491 
-1.837300 19.476299 -0.348502 3.162300 2.666101 1.984800 0.000000 -0.000000 0.000000 -0.000001 -0.000003 0.000001 -11.847300 -4.878502 -5.723300 2.571390 -7.064840 0.000001 1.676195 8.156303 23.190000 2.520169 -6.924130 0.000001 0.041200 1.793099 3.628404 0.232951 -0.640014 2.102141 1.912405 -8.681207 -24.803110 0.000000 -0.000000 0.000000 -0.000003 -0.000001 -0.000002 7.111598 6.456697 -10.953798 -2.632578 -7.232960 0.000001 -3.797695 -11.886297 35.330789 -2.547789 -6.999999 0.000002 0.186200 -8.124596 0.018698 -0.230670 -0.633761 2.121610 -0.075003 -1.766299 4.860305 0.000000 -0.000000 0.000000 -4.144200 -0.996400 6.712899 1.342900 -1.622500 -1.551601 0.050700 2.084388 -0.031410 3.911600 -0.649600 -5.234801 0.000000 0.000000 -0.000000 -10.189498 -2.511601 -26.297504 4.887902 -0.801299 21.774407 0.084110 1.656790 -0.308221 3.361701 -0.579600 11.515299 0.000000 0.000001 -0.000000 0.000001 0.000001 -0.000002 73.017202 0.218105 28.968820 -0.000003 -5.324619 0.000001 23.203807 -34.310905 7.252808 0.000000 -3.484019 -0.000000 24.594012 -11.441391 -32.164600 0.000000 -0.000001 -0.000001 -0.000001 0.000000 -0.000000 -7.125007 -0.000002 -0.000000 0.000000 -0.000001 -0.000001 -9.412837 64.413199 4.443440 0.000000 0.000001 -0.000000 0.000000 0.000000 -0.000000 -76.063200 -5.913401 -37.965002 0.000001 -5.335891 0.000000 -28.213780 -39.312311 -10.258885 0.000001 -3.641341 0.000000 -26.957794 1.149597 13.098396 0.000001 -0.000002 -0.000000 0.000001 0.000001 0.000003 7.124996 0.000001 -0.000001 0.000001 -0.000002 -0.000000 0.348211 44.609502 0.003395 
-1.854200 19.182400 -0.384002 3.168300 3.327401 1.132300 0.000000 -0.000001 0.000000 -0.000001 -0.000003 0.000001 -9.514702 -6.088804 -4.134100 2.571389 -7.064840 0.000001 1.730997 8.281802 23.573401 2.520170 -6.924132 0.000001 0.128501 -1.007798 7.216903 0.232951 -0.640013 2.102140 1.746802 -8.317401 -23.682498 0.000000 -0.000001 0.000000 -0.000001 -0.000005 -0.000003 5.474596 9.192799 -7.846497 -2.632579 -7.232959 0.000001 -3.712995 -11.768399 34.917491 -2.547789 -7.000001 0.000000 0.293297 -10.193994 0.069806 -0.230669 -0.633762 2.121610 -0.086601 -1.897796 5.223306 0.000000 -0.000001 0.000000 -4.492399 -1.177901 7.320700 1.573500 -1.909800 -1.541501 0.050700 2.084386 -0.031410 4.402501 -0.768100 -5.524600 -0.000000 0.000002 -0.000000 -10.886202 -2.487201 -25.891702 5.428802 -0.698900 22.649107 0.084110 1.656791 -0.308220 3.720500 -0.548200 11.772106 -0.000000 0.000003 -0.000000 -0.000001 0.000001 -0.000001 83.080399 -1.126291 32.448012 -0.000003 -5.324619 0.000002 23.989110 -35.152706 7.700313 -0.000002 -3.484021 0.000000 24.071405 -6.771194 -32.268296 0.000000 0.000001 -0.000001 0.000000 0.000001 -0.000000 -7.125001 0.000000 -0.000001 0.000000 0.000001 -0.000000 -10.122418 64.373099 4.772140 -0.000000 0.000002 0.000000 -0.000001 0.000000 -0.000000 -86.997690 -8.320914 -42.490504 0.000000 -5.335889 0.000000 -28.766878 -39.812712 -10.611083 -0.000001 -3.641340 -0.000001 -28.239395 4.214700 12.827604 0.000001 0.000000 -0.000001 0.000001 0.000002 -0.000000 7.124996 -0.000004 -0.000000 0.000000 0.000000 -0.000001 -0.869884 44.469695 -0.011408 
